<?xml version="1.0" encoding="iso-8859-1"?>
<!-- Generator: Adobe Illustrator 18.0.0, SVG Export Plug-In . SVG Version: 6.00 Build 0)  -->
<!DOCTYPE svg PUBLIC "-//W3C//DTD SVG 1.1//EN" "http://www.w3.org/Graphics/SVG/1.1/DTD/svg11.dtd">
<svg version="1.1" id="Capa_1" xmlns="http://www.w3.org/2000/svg" xmlns:xlink="http://www.w3.org/1999/xlink" x="0px" y="0px"
	 viewBox="0 0 297 297" style="enable-background:new 0 0 297 297;" xml:space="preserve">
<g>
	<path d="M288.297,59.386h-20.016v152.296c0,4.806-3.897,8.703-8.703,8.703c-4.806,0-8.703-3.897-8.703-8.703V59.386h-45.299
		c-4.806,0-8.703,3.897-8.703,8.703v202.72c0,4.806,3.897,8.703,8.703,8.703h82.72c4.806,0,8.703-3.897,8.703-8.703V68.088
		C297,63.282,293.103,59.386,288.297,59.386z"/>
	<path d="M268.281,59.386V33.713h20.016c4.806,0,8.703-3.897,8.703-8.703s-3.897-8.703-8.703-8.703h-28.719
		c-4.806,0-8.703,3.897-8.703,8.703v34.375h0H268.281z"/>
	<path d="M156.654,228.309H26.191c-5.458,0-9.884,4.425-9.884,9.884v12.354c0,16.621,13.523,30.145,30.145,30.145h89.94
		c16.622,0,30.145-13.523,30.145-30.145v-12.354C166.537,232.735,162.112,228.309,156.654,228.309z"/>
	<path d="M26.191,182.845h130.463c5.458,0,9.884-4.425,9.884-9.884v-12.107c0-34.743-28.265-63.007-63.007-63.007H79.315
		c-34.743,0-63.007,28.265-63.007,63.007v12.107C16.308,178.42,20.733,182.845,26.191,182.845z"/>
	<path d="M172.962,195.694H9.884c-5.458,0-9.884,4.425-9.884,9.884c0,5.458,4.425,9.884,9.884,9.884h163.078
		c5.458,0,9.884-4.425,9.884-9.884C182.845,200.119,178.42,195.694,172.962,195.694z"/>
</g>
<g>
</g>
<g>
</g>
<g>
</g>
<g>
</g>
<g>
</g>
<g>
</g>
<g>
</g>
<g>
</g>
<g>
</g>
<g>
</g>
<g>
</g>
<g>
</g>
<g>
</g>
<g>
</g>
<g>
</g>
</svg>
